# xmcd
#
# Track frame offsets: 
#        150
#        17255
#        34540
#        49497
#        62316
#        82006
#        102138
#        118263
#        133773
#        155596
#        175379
#        194430
#
# Disc length: 2831 seconds
#
# Revision: 0
# Processed by: cddbd v1.5.2PL0 Copyright (c) Steve Scherf et al.
# Submitted via: ExactAudioCopy v1.0b4
#
DISCID=9d0b0d0c
DTITLE=Jeremiah Johnson Band - Blues Heart Attack
DYEAR=2016
DGENRE=Blues Rock
TTITLE0=Mind Reader
TTITLE1=Room Of Fools
TTITLE2=Flat Line
TTITLE3=Get It In The Middle
TTITLE4=Summertime
TTITLE5=Skip That Stone
TTITLE6=Talk Too Much
TTITLE7=Sun Shine Through
TTITLE8=Southern Drawl
TTITLE9=Everybody Party
TTITLE10=Here We Go Again
TTITLE11=It's Been Hard
EXTD=
EXTT0=
EXTT1=
EXTT2=
EXTT3=
EXTT4=
EXTT5=
EXTT6=
EXTT7=
EXTT8=
EXTT9=
EXTT10=
EXTT11=
PLAYORDER=
